<?xml version="1.0" encoding="UTF-8"?>
<svg id="Layer_1" xmlns="http://www.w3.org/2000/svg" version="1.1" viewBox="0 0 221.26 81.01">
  <!-- Generator: Adobe Illustrator 30.2.0, SVG Export Plug-In . SVG Version: 2.1.1 Build 105)  -->
  <defs>
    <style>
      .st0 {
        fill: #2d2382;
      }

      .st1 {
        fill: #00a8c0;
      }

      .st2 {
        fill: #eb5a50;
      }

      .st3 {
        fill: #00aabe;
      }
    </style>
  </defs>
  <path class="st0" d="M7.99,63h-1.12c-.28,0-.42-.15-.42-.46v-22.26c0-.23-.13-.35-.39-.35H.46c-.31,0-.46-.14-.46-.42v-.89c0-.28.15-.42.46-.42h13.89c.31,0,.46.14.46.42v.89c0,.28-.15.42-.46.42h-5.59c-.26,0-.39.12-.39.35v22.26c0,.31-.13.46-.39.46h0Z"/>
  <path class="st0" d="M32.41,38.19h1.08c.28,0,.42.14.42.42v18.91c0,1.7-.48,3.04-1.45,4.01s-2.28,1.47-3.95,1.47h-4.32c-1.67,0-2.99-.49-3.95-1.47-.96-.98-1.45-2.31-1.45-4.01v-18.87c0-.31.13-.46.39-.46h1.12c.28,0,.42.15.42.46v18.79c0,1.21.31,2.15.93,2.82s1.52,1,2.7,1h3.97c1.18,0,2.09-.33,2.72-.98.63-.66.95-1.6.95-2.84v-18.79c0-.31.14-.46.42-.46Z"/>
  <path class="st0" d="M41.17,63h-1.12c-.26,0-.39-.15-.39-.46v-23.88c0-.31.13-.46.39-.46h8.8c1.67,0,3,.49,3.97,1.47.98.98,1.47,2.31,1.47,4.01v3.67c0,1.44-.37,2.62-1.1,3.55s-1.73,1.52-2.99,1.77v.15l4.59,9.72c.15.31.06.46-.27.46h-1.2c-.33,0-.57-.15-.69-.46l-4.55-9.72h-6.1c-.26,0-.39.12-.39.35v9.37c0,.31-.14.46-.42.46ZM41.98,51.15h6.67c1.18,0,2.1-.33,2.74-.98.64-.66.96-1.59.96-2.8v-3.63c0-1.21-.32-2.15-.96-2.82s-1.56-1-2.74-1h-6.67c-.26,0-.39.12-.39.35v10.53c0,.23.13.35.39.35Z"/>
  <path class="st0" d="M60.03,62.54v-23.88c0-.31.13-.46.39-.46h8.99c1.67,0,3,.48,3.97,1.43.98.95,1.47,2.26,1.47,3.94v2.35c0,2.34-1.11,3.85-3.32,4.51.95.05,1.79.49,2.51,1.31s1.08,1.89,1.08,3.2v2.7c0,1.67-.49,2.98-1.47,3.94-.98.95-2.3,1.43-3.97,1.43h-9.26c-.26,0-.39-.15-.39-.46h0ZM62.35,49.57h6.79c1.21,0,2.14-.32,2.8-.97.66-.64.98-1.56.98-2.74v-2.28c0-2.47-1.22-3.7-3.67-3.7h-6.91c-.26,0-.39.12-.39.35v8.99c0,.23.13.35.39.35h0ZM62.35,61.3h7.18c2.44,0,3.67-1.23,3.67-3.7v-2.66c0-2.44-1.34-3.67-4.01-3.67h-6.83c-.26,0-.39.1-.39.31v9.38c0,.23.13.35.39.35h0Z"/>
  <path class="st0" d="M90.55,63h-4.75c-1.67,0-2.99-.49-3.95-1.47s-1.45-2.31-1.45-4.01v-13.85c0-1.7.48-3.03,1.45-4.01.96-.98,2.28-1.47,3.95-1.47h4.75c1.67,0,2.99.49,3.95,1.47s1.45,2.31,1.45,4.01v13.85c0,1.7-.48,3.04-1.45,4.01s-2.28,1.47-3.95,1.47ZM85.96,61.26h4.4c1.18,0,2.09-.33,2.72-.98.63-.66.95-1.6.95-2.84v-13.7c0-1.23-.31-2.18-.95-2.84-.63-.66-1.54-.98-2.72-.98h-4.4c-1.18,0-2.08.34-2.7,1-.62.67-.93,1.61-.93,2.82v13.7c0,1.21.31,2.15.93,2.82s1.52,1,2.7,1Z"/>
  <path class="st3" d="M109.34,63h-1.77c-.26,0-.42-.15-.5-.46l-7.18-23.88c-.1-.31.01-.46.35-.46h1.2c.26,0,.42.15.5.46l6.44,21.95h.15l6.44-21.95c.08-.31.24-.46.5-.46h1.2c.31,0,.42.15.35.46l-7.18,23.88c-.08.31-.24.46-.5.46Z"/>
  <path class="st3" d="M119.03,63h-1.2c-.28,0-.37-.15-.27-.46l7.68-23.88c.08-.31.26-.46.54-.46h1.81c.26,0,.44.15.54.46l7.68,23.88c.08.31,0,.46-.27.46h-1.23c-.26,0-.42-.15-.5-.46l-2.08-6.17h-10.11l-2.08,6.17c-.1.31-.27.46-.5.46h0ZM126.59,40.31l-4.44,14.31h9.07l-4.48-14.31h-.16.01Z"/>
  <path class="st3" d="M153.71,38.19h1.08c.28,0,.42.14.42.42v18.91c0,1.7-.48,3.04-1.45,4.01-.96.98-2.28,1.47-3.95,1.47h-4.32c-1.67,0-2.99-.49-3.95-1.47-.97-.98-1.45-2.31-1.45-4.01v-18.87c0-.31.13-.46.39-.46h1.12c.28,0,.42.15.42.46v18.79c0,1.21.31,2.15.93,2.82s1.52,1,2.7,1h3.97c1.18,0,2.09-.33,2.72-.98.63-.66.95-1.6.95-2.84v-18.79c0-.31.14-.46.42-.46h0Z"/>
  <path class="st3" d="M174.08,63h-12.27c-.26,0-.39-.15-.39-.46v-23.88c0-.31.13-.46.39-.46h1.12c.28,0,.42.15.42.46v22.18c0,.23.13.35.39.35h10.34c.31,0,.46.14.46.42v.97c0,.28-.15.42-.46.42h0Z"/>
  <path class="st3" d="M182.76,63h-1.12c-.28,0-.42-.15-.42-.46v-22.26c0-.23-.13-.35-.39-.35h-5.59c-.31,0-.46-.14-.46-.42v-.89c0-.28.15-.42.46-.42h13.89c.31,0,.46.14.46.42v.89c0,.28-.15.42-.46.42h-5.59c-.26,0-.39.12-.39.35v22.26c0,.31-.13.46-.39.46h0Z"/>
  <g>
    <path class="st0" d="M6.99,81h-.41c-.09,0-.14-.06-.14-.17v-8.66c0-.11.05-.17.14-.17h3.22c.61,0,1.09.18,1.44.53s.53.84.53,1.46v1.64c0,.62-.18,1.1-.53,1.46s-.84.53-1.44.53h-2.52c-.09,0-.14.04-.14.11v3.11c0,.11-.05.17-.15.17h0ZM7.28,76.97h2.46c.43,0,.76-.12.98-.36.22-.24.34-.58.34-1.02v-1.58c0-.45-.11-.79-.34-1.03-.22-.24-.55-.36-.98-.36h-2.46c-.09,0-.14.04-.14.13v4.1c0,.08.05.11.14.11h0Z"/>
    <path class="st0" d="M17.42,81h-1.72c-.61,0-1.08-.18-1.43-.53s-.52-.84-.52-1.46v-5.02c0-.62.17-1.1.52-1.46s.83-.53,1.43-.53h1.72c.61,0,1.08.18,1.43.53s.52.84.52,1.46v5.02c0,.62-.17,1.1-.52,1.46s-.83.53-1.43.53ZM15.75,80.37h1.6c.43,0,.76-.12.99-.36s.34-.58.34-1.03v-4.97c0-.45-.11-.79-.34-1.03s-.56-.36-.99-.36h-1.6c-.43,0-.76.12-.98.36-.22.24-.34.58-.34,1.02v4.97c0,.44.11.78.34,1.02.22.24.55.36.98.36v.02Z"/>
    <path class="st0" d="M23.84,81h-.7c-.1,0-.17-.06-.2-.17l-1.92-8.66c-.03-.11.02-.17.14-.17h.46c.1,0,.16.06.18.17l1.67,8.03h.07l2.13-8.05c.02-.1.08-.15.18-.15h.53c.11,0,.18.05.2.15l2.14,8.05h.07l1.65-8.03c.02-.11.08-.17.2-.17h.48c.11,0,.15.06.13.17l-1.92,8.66c-.02.11-.08.17-.18.17h-.71c-.1,0-.17-.06-.2-.17l-2.07-7.89h-.06l-2.09,7.89c-.03.11-.09.17-.18.17Z"/>
    <path class="st0" d="M37.56,81h-4.33c-.09,0-.14-.06-.14-.17v-8.66c0-.11.05-.17.14-.17h4.33c.11,0,.17.05.17.15v.32c0,.1-.06.15-.17.15h-3.63c-.09,0-.14.04-.14.13v3.22c0,.08.05.13.14.13h3.23c.1,0,.15.05.15.15v.32c0,.1-.05.15-.15.15h-3.23c-.09,0-.14.04-.14.13v3.39c0,.08.05.13.14.13h3.63c.11,0,.17.05.17.15v.32c0,.1-.06.15-.17.15h0Z"/>
    <path class="st0" d="M40.37,81h-.41c-.09,0-.14-.06-.14-.17v-8.66c0-.11.05-.17.14-.17h3.19c.61,0,1.09.18,1.44.53s.53.84.53,1.46v1.33c0,.52-.13.95-.4,1.29-.27.34-.63.55-1.08.64v.06l1.67,3.53c.06.11.02.17-.1.17h-.43c-.12,0-.21-.06-.25-.17l-1.65-3.53h-2.21c-.09,0-.14.04-.14.13v3.4c0,.11-.05.17-.15.17h0ZM40.67,76.7h2.42c.43,0,.76-.12.99-.36s.35-.58.35-1.02v-1.32c0-.44-.12-.78-.35-1.02s-.56-.36-.99-.36h-2.42c-.09,0-.14.04-.14.13v3.82c0,.08.05.13.14.13Z"/>
    <path class="st0" d="M51.81,81h-4.33c-.09,0-.14-.06-.14-.17v-8.66c0-.11.05-.17.14-.17h4.33c.11,0,.17.05.17.15v.32c0,.1-.06.15-.17.15h-3.63c-.09,0-.14.04-.14.13v3.22c0,.08.05.13.14.13h3.23c.1,0,.15.05.15.15v.32c0,.1-.05.15-.15.15h-3.23c-.09,0-.14.04-.14.13v3.39c0,.08.05.13.14.13h3.63c.11,0,.17.05.17.15v.32c0,.1-.06.15-.17.15h0Z"/>
    <path class="st0" d="M54.08,80.83v-8.66c0-.11.05-.17.14-.17h3.46c.61,0,1.08.18,1.43.53s.52.84.52,1.46v5.02c0,.62-.17,1.1-.52,1.46-.35.36-.83.53-1.43.53h-3.46c-.09,0-.14-.06-.14-.17ZM54.92,80.37h2.69c.43,0,.76-.12.99-.36s.34-.58.34-1.03v-4.97c0-.45-.11-.79-.34-1.03s-.56-.36-.99-.36h-2.69c-.09,0-.14.04-.14.13v7.49c0,.08.05.13.14.13Z"/>
    <path class="st0" d="M65.61,80.83v-8.66c0-.11.05-.17.14-.17h3.26c.61,0,1.09.17,1.44.52s.53.82.53,1.43v.85c0,.85-.4,1.39-1.2,1.64.34.02.65.18.91.48s.39.69.39,1.16v.98c0,.61-.18,1.08-.53,1.43s-.84.52-1.44.52h-3.36c-.09,0-.14-.06-.14-.17h0ZM66.45,76.13h2.46c.44,0,.78-.12,1.01-.35.24-.23.36-.57.36-.99v-.83c0-.9-.44-1.34-1.33-1.34h-2.51c-.09,0-.14.04-.14.13v3.26c0,.08.05.13.14.13h.01ZM66.45,80.38h2.6c.89,0,1.33-.45,1.33-1.34v-.97c0-.89-.49-1.33-1.46-1.33h-2.48c-.09,0-.14.04-.14.11v3.4c0,.08.05.13.14.13h.01Z"/>
    <path class="st0" d="M75.79,81h-.41c-.1,0-.15-.06-.15-.17v-3.23l-2.72-5.43c-.06-.11-.02-.17.1-.17h.5c.08,0,.15.06.2.17l2.24,4.58h.07l2.23-4.58c.05-.11.11-.17.2-.17h.52c.1,0,.14.06.1.17l-2.73,5.43v3.23c0,.11-.05.17-.14.17h0Z"/>
    <path class="st0" d="M83.9,79.01v-.5c0-.1.05-.15.15-.15h.41c.1,0,.15.05.15.15v.46c0,.93.45,1.4,1.36,1.4h1.46c.9,0,1.36-.47,1.36-1.41v-.59c0-.41-.17-.73-.5-.97-.34-.23-.74-.4-1.22-.5s-.95-.21-1.43-.32-.89-.32-1.22-.62c-.34-.3-.5-.7-.5-1.2v-.77c0-.62.18-1.1.53-1.46.35-.35.83-.53,1.44-.53h1.62c.61,0,1.09.18,1.44.53.35.35.53.84.53,1.46v.39c0,.1-.05.15-.15.15h-.41c-.1,0-.15-.05-.15-.15v-.35c0-.93-.45-1.4-1.36-1.4h-1.44c-.9,0-1.34.48-1.34,1.43v.7c0,.64.57,1.08,1.72,1.3.48.09.95.2,1.43.32s.89.34,1.22.66c.34.32.5.75.5,1.29v.69c0,.62-.18,1.1-.53,1.46s-.84.53-1.44.53h-1.65c-.61,0-1.09-.18-1.44-.53-.35-.35-.53-.84-.53-1.46h-.01Z"/>
    <path class="st0" d="M95.37,81h-1.76c-.61,0-1.08-.18-1.43-.53s-.52-.84-.52-1.46v-5.02c0-.62.17-1.1.52-1.46s.83-.53,1.43-.53h1.76c.61,0,1.08.18,1.43.53s.52.84.52,1.46v.69c0,.11-.05.17-.15.17h-.39c-.1,0-.15-.06-.15-.17v-.66c0-.45-.11-.79-.34-1.03-.23-.24-.56-.36-.99-.36h-1.64c-.43,0-.76.12-.98.36s-.34.58-.34,1.02v4.97c0,.44.11.78.34,1.02.22.24.55.36.98.36h1.64c.43,0,.76-.12.99-.36.23-.24.34-.58.34-1.03v-.66c0-.11.05-.17.15-.17h.39c.1,0,.15.06.15.17v.69c0,.62-.17,1.1-.52,1.46s-.83.53-1.43.53h0Z"/>
    <path class="st0" d="M99.34,81h-.43c-.1,0-.14-.06-.1-.17l2.79-8.66c.03-.11.09-.17.2-.17h.66c.09,0,.16.06.2.17l2.79,8.66c.03.11,0,.17-.1.17h-.45c-.09,0-.15-.06-.18-.17l-.76-2.24h-3.67l-.76,2.24c-.04.11-.1.17-.18.17h-.01ZM102.09,72.77l-1.61,5.19h3.29l-1.62-5.19h-.06Z"/>
    <path class="st0" d="M111.86,81h-4.45c-.09,0-.14-.06-.14-.17v-8.66c0-.11.05-.17.14-.17h.41c.1,0,.15.06.15.17v8.05c0,.08.05.13.14.13h3.75c.11,0,.17.05.17.15v.35c0,.1-.06.15-.17.15Z"/>
    <path class="st0" d="M118.3,81h-4.33c-.09,0-.14-.06-.14-.17v-8.66c0-.11.05-.17.14-.17h4.33c.11,0,.17.05.17.15v.32c0,.1-.06.15-.17.15h-3.63c-.09,0-.14.04-.14.13v3.22c0,.08.05.13.14.13h3.23c.1,0,.15.05.15.15v.32c0,.1-.05.15-.15.15h-3.23c-.09,0-.14.04-.14.13v3.39c0,.08.05.13.14.13h3.63c.11,0,.17.05.17.15v.32c0,.1-.06.15-.17.15h0Z"/>
    <path class="st0" d="M121.11,81h-.41c-.09,0-.14-.06-.14-.17v-8.66c0-.11.05-.17.14-.17h4.31c.11,0,.17.05.17.15v.32c0,.1-.05.15-.17.15h-3.61c-.09,0-.14.04-.14.13v3.4c0,.08.05.11.14.11h3.23c.1,0,.15.05.15.15v.34c0,.1-.05.15-.15.15h-3.23c-.09,0-.14.04-.14.11v3.81c0,.11-.05.17-.15.17h0Z"/>
    <path class="st0" d="M127.66,81h-.41c-.09,0-.14-.06-.14-.17v-8.66c0-.11.05-.17.14-.17h3.19c.61,0,1.09.18,1.44.53s.53.84.53,1.46v1.33c0,.52-.13.95-.4,1.29s-.63.55-1.08.64v.06l1.67,3.53c.06.11.02.17-.1.17h-.43c-.12,0-.21-.06-.25-.17l-1.65-3.53h-2.21c-.09,0-.14.04-.14.13v3.4c0,.11-.05.17-.15.17h-.01ZM127.95,76.7h2.42c.43,0,.76-.12.99-.36s.35-.58.35-1.02v-1.32c0-.44-.12-.78-.35-1.02s-.57-.36-.99-.36h-2.42c-.09,0-.14.04-.14.13v3.82c0,.08.05.13.14.13Z"/>
    <path class="st0" d="M139.09,81h-4.33c-.09,0-.14-.06-.14-.17v-8.66c0-.11.05-.17.14-.17h4.33c.11,0,.17.05.17.15v.32c0,.1-.06.15-.17.15h-3.63c-.09,0-.14.04-.14.13v3.22c0,.08.05.13.14.13h3.23c.1,0,.15.05.15.15v.32c0,.1-.05.15-.15.15h-3.23c-.09,0-.14.04-.14.13v3.39c0,.08.05.13.14.13h3.63c.11,0,.17.05.17.15v.32c0,.1-.06.15-.17.15h0Z"/>
    <path class="st0" d="M145.83,81h-4.33c-.09,0-.14-.06-.14-.17v-8.66c0-.11.05-.17.14-.17h4.33c.11,0,.17.05.17.15v.32c0,.1-.06.15-.17.15h-3.63c-.09,0-.14.04-.14.13v3.22c0,.08.05.13.14.13h3.23c.1,0,.15.05.15.15v.32c0,.1-.05.15-.15.15h-3.23c-.09,0-.14.04-.14.13v3.39c0,.08.05.13.14.13h3.63c.11,0,.17.05.17.15v.32c0,.1-.06.15-.17.15h0Z"/>
  </g>
  <path class="st2" d="M211.69,16.84l-1.13,1.97-1.06,1.84c1.18,1.17,1.92,2.79,1.92,4.59s-.74,3.42-1.92,4.59l1.06,1.84,1.13,1.97c2.46-1.97,4.03-5,4.03-8.39s-1.58-6.42-4.03-8.39"/>
  <path class="st2" d="M207.73,33.29l-1.06-1.84c-.54.15-1.12.23-1.71.23-2.99,0-5.52-2.05-6.24-4.82h-4.4c.79,5.16,5.26,9.13,10.64,9.13,1.38,0,2.69-.26,3.9-.74l-1.14-1.97h0Z"/>
  <path class="st2" d="M204.96,14.47c-5.38,0-9.85,3.97-10.64,9.13h4.4c.72-2.77,3.25-4.82,6.24-4.82.59,0,1.16.08,1.71.23l1.06-1.84,1.14-1.97c-1.21-.47-2.53-.74-3.9-.74"/>
  <path class="st3" d="M192,23.6h-6.11c.16.52.24,1.07.24,1.63s-.09,1.12-.24,1.63h6.11c-.07-.54-.11-1.08-.11-1.63s.04-1.1.11-1.63"/>
  <path class="st3" d="M184.25,23.6c-.63-1.43-2.06-2.44-3.72-2.44-2.24,0-4.07,1.83-4.07,4.07s1.83,4.07,4.07,4.07c1.66,0,3.09-1,3.72-2.44.22-.5.35-1.05.35-1.63s-.13-1.13-.35-1.63"/>
  <polygon class="st1" points="215.92 40.94 215.92 40.94 212.86 35.64 215.92 40.94"/>
  <polygon class="st1" points="210.03 37.28 210.03 37.28 213.09 42.57 210.03 37.28"/>
  <path class="st3" d="M214.38,41.54c.48-.28,1-.48,1.54-.6l-3.06-5.3c-.87.66-1.81,1.21-2.83,1.64l3.05,5.29c.37-.4.8-.74,1.29-1.03"/>
  <path class="st3" d="M220.71,44.36c-.72-1.25-2.08-2.04-3.53-2.04-.15,0-.3,0-.44.03-.56.06-1.1.24-1.59.52-.5.29-.92.67-1.24,1.12-.92,1.26-1.08,3-.25,4.44.72,1.25,2.08,2.04,3.53,2.04.71,0,1.41-.19,2.03-.55.94-.54,1.61-1.42,1.9-2.47.28-1.05.14-2.15-.41-3.09"/>
  <path class="st3" d="M215.92,9.53c-.54-.13-1.06-.33-1.54-.6-.49-.28-.92-.63-1.29-1.03l-3.05,5.29c1.01.43,1.96.98,2.83,1.64l3.06-5.3h0Z"/>
  <path class="st3" d="M219.22.55c-.62-.36-1.32-.55-2.03-.55-1.45,0-2.8.78-3.53,2.03-.83,1.44-.68,3.18.25,4.44.32.44.74.83,1.24,1.12.49.28,1.03.46,1.59.52.15.02.3.03.44.03,1.45,0,2.8-.78,3.53-2.03,1.12-1.94.45-4.44-1.49-5.56"/>
  <path class="st3" d="M208.03,23.19h0c-.62-.93-1.65-1.56-2.83-1.63-.08,0-.16-.01-.23-.01-1.44,0-2.69.84-3.3,2.05-.25.49-.39,1.05-.39,1.63s.14,1.14.39,1.63h0c.6,1.21,1.85,2.05,3.3,2.05.08,0,.16,0,.23-.01,1.18-.07,2.21-.7,2.83-1.63.39-.58.62-1.29.62-2.04s-.23-1.46-.62-2.04"/>
</svg>